<svg xmlns="http://www.w3.org/2000/svg" viewBox="0 0 960 600" role="img" aria-labelledby="title">
  <title id="title">Task manager project preview</title>
  <rect width="960" height="600" fill="#f7fee7"/>
  <rect x="70" y="68" width="820" height="464" rx="26" fill="#ffffff"/>
  <rect x="118" y="126" width="206" height="348" rx="18" fill="#f1f5f9"/>
  <rect x="377" y="126" width="206" height="348" rx="18" fill="#f1f5f9"/>
  <rect x="636" y="126" width="206" height="348" rx="18" fill="#f1f5f9"/>
  <path d="M152 178h88M411 178h88M670 178h88" stroke="#172033" stroke-width="18" stroke-linecap="round"/>
  <rect x="152" y="224" width="138" height="78" rx="12" fill="#bfdbfe"/>
  <rect x="152" y="326" width="138" height="78" rx="12" fill="#fecdd3"/>
  <rect x="411" y="224" width="138" height="78" rx="12" fill="#ccfbf1"/>
  <rect x="411" y="326" width="138" height="78" rx="12" fill="#fde68a"/>
  <rect x="670" y="224" width="138" height="78" rx="12" fill="#ddd6fe"/>
  <path d="M178 264h86M437 264h86M696 264h86M178 366h86M437 366h86" stroke="#334155" stroke-width="12" stroke-linecap="round"/>
</svg>
